<svg id="Layer_2" data-name="Layer 2" xmlns="http://www.w3.org/2000/svg" viewBox="0 0 375.69 328.6"><defs><style>.cls-1{fill:#020202;}</style></defs><rect class="cls-1" x="-27.6" y="136.76" width="408.86" height="30.19" transform="translate(222.86 394.75) rotate(-139.29)"/><rect class="cls-1" x="-45.01" y="144.84" width="443.68" height="14.03" transform="translate(222.86 394.75) rotate(-139.29)"/><rect class="cls-1" x="-27.6" y="136.76" width="408.86" height="30.19" transform="translate(222.86 394.75) rotate(-139.29)"/><rect class="cls-1" x="-45.01" y="144.84" width="443.68" height="14.03" transform="translate(222.86 394.75) rotate(-139.29)"/><rect class="cls-1" x="-27.6" y="136.76" width="408.86" height="30.19" transform="translate(222.86 394.75) rotate(-139.29)"/><rect class="cls-1" x="-45.01" y="144.84" width="443.68" height="14.03" transform="translate(222.86 394.75) rotate(-139.29)"/><rect class="cls-1" x="-36.3" y="122.29" width="426.28" height="59.12" transform="translate(222.86 394.75) rotate(-139.29)"/><rect class="cls-1" x="-59.21" y="138.2" width="472.1" height="27.31" transform="translate(222.86 394.75) rotate(-139.29)"/><rect class="cls-1" x="-27.6" y="136.76" width="408.86" height="30.19" transform="translate(222.86 394.75) rotate(-139.29)"/><rect class="cls-1" x="-45.01" y="144.84" width="443.68" height="14.03" transform="translate(222.86 394.75) rotate(-139.29)"/><rect class="cls-1" x="-27.6" y="136.76" width="408.86" height="30.19" transform="translate(222.86 394.75) rotate(-139.29)"/><rect class="cls-1" x="-45.01" y="144.84" width="443.68" height="14.03" transform="translate(222.86 394.75) rotate(-139.29)"/><rect class="cls-1" x="-27.6" y="136.76" width="408.86" height="30.19" transform="translate(222.86 394.75) rotate(-139.29)"/><rect class="cls-1" x="-45.01" y="144.84" width="443.68" height="14.03" transform="translate(222.86 394.75) rotate(-139.29)"/><rect class="cls-1" x="-36.3" y="122.29" width="426.28" height="59.12" transform="translate(222.86 394.75) rotate(-139.29)"/><rect class="cls-1" x="-59.21" y="138.2" width="472.1" height="27.31" transform="translate(222.86 394.75) rotate(-139.29)"/><rect class="cls-1" x="-27.6" y="136.76" width="408.86" height="30.19" transform="translate(-45.24 164.52) rotate(-40.71)"/><rect class="cls-1" x="-45.01" y="144.84" width="443.68" height="14.03" transform="translate(-45.24 164.52) rotate(-40.71)"/><rect class="cls-1" x="-27.6" y="136.76" width="408.86" height="30.19" transform="translate(-45.24 164.52) rotate(-40.71)"/><rect class="cls-1" x="-45.01" y="144.84" width="443.68" height="14.03" transform="translate(-45.24 164.52) rotate(-40.71)"/><rect class="cls-1" x="-27.6" y="136.76" width="408.86" height="30.19" transform="translate(-45.24 164.52) rotate(-40.71)"/><rect class="cls-1" x="-45.01" y="144.84" width="443.68" height="14.03" transform="translate(-45.24 164.52) rotate(-40.71)"/><rect class="cls-1" x="-36.3" y="122.29" width="426.28" height="59.12" transform="translate(-45.24 164.52) rotate(-40.71)"/><rect class="cls-1" x="-59.21" y="138.2" width="472.1" height="27.31" transform="translate(-45.24 164.52) rotate(-40.71)"/><rect class="cls-1" x="-27.6" y="136.76" width="408.86" height="30.19" transform="translate(-45.24 164.52) rotate(-40.71)"/><rect class="cls-1" x="-45.01" y="144.84" width="443.68" height="14.03" transform="translate(-45.24 164.52) rotate(-40.71)"/><rect class="cls-1" x="-27.6" y="136.76" width="408.86" height="30.19" transform="translate(-45.24 164.52) rotate(-40.71)"/><rect class="cls-1" x="-45.01" y="144.84" width="443.68" height="14.03" transform="translate(-45.24 164.52) rotate(-40.71)"/><rect class="cls-1" x="-27.6" y="136.76" width="408.86" height="30.19" transform="translate(-45.24 164.52) rotate(-40.71)"/><rect class="cls-1" x="-45.01" y="144.84" width="443.68" height="14.03" transform="translate(-45.24 164.52) rotate(-40.71)"/><rect class="cls-1" x="-36.3" y="122.29" width="426.28" height="59.12" transform="translate(-45.24 164.52) rotate(-40.71)"/><rect class="cls-1" x="-59.21" y="138.2" width="472.1" height="27.31" transform="translate(-45.24 164.52) rotate(-40.71)"/></svg>