<?xml version="1.0" standalone="no"?>
<!DOCTYPE svg PUBLIC "-//W3C//DTD SVG 20010904//EN"
 "http://www.w3.org/TR/2001/REC-SVG-20010904/DTD/svg10.dtd">
<svg version="1.0" xmlns="http://www.w3.org/2000/svg"
 width="512.000000pt" height="512.000000pt" viewBox="0 0 512.000000 512.000000"
 preserveAspectRatio="xMidYMid meet">

<g transform="translate(0.000000,512.000000) scale(0.100000,-0.100000)"
fill="#FFFFFF" stroke="none">
<path d="M920 4194 c-102 -27 -180 -73 -261 -153 -155 -154 -211 -351 -159
-555 28 -110 74 -190 155 -271 180 -180 440 -224 671 -114 94 45 218 168 262
259 59 122 78 263 51 392 -42 207 -225 394 -430 443 -80 18 -217 18 -289 -1z"/>
<path d="M2280 3768 c-66 -34 -93 -79 -88 -149 5 -65 32 -109 82 -133 31 -14
141 -16 1144 -16 l1109 0 33 23 c48 32 72 69 77 119 7 58 -23 118 -74 149
l-38 24 -1100 3 -1100 2 -45 -22z"/>
<path d="M3935 2068 c-27 -5 -87 -27 -133 -48 -108 -51 -222 -161 -270 -260
-113 -234 -71 -500 108 -680 114 -113 253 -170 418 -170 160 0 287 54 405 171
153 152 209 350 157 553 -11 43 -34 105 -52 139 -43 81 -155 194 -235 235
-119 63 -268 85 -398 60z"/>
<path d="M560 1628 c-48 -33 -72 -70 -77 -120 -7 -58 23 -118 74 -149 l38 -24
1100 -3 1100 -2 45 22 c66 34 93 79 88 149 -5 65 -32 109 -82 133 -31 14 -141
16 -1144 16 l-1109 0 -33 -22z"/>
</g>
</svg>
