<svg id="Layer_1" data-name="Layer 1" xmlns="http://www.w3.org/2000/svg" viewBox="0 0 437.88 529.38"><defs><style>.cls-1,.cls-3,.cls-4{fill:#fff;}.cls-1{stroke:#bebebe;}.cls-1,.cls-4{stroke-miterlimit:10;}.cls-2{fill:#ff1212;}.cls-4{stroke:#fff;}</style></defs><path class="cls-1" d="M242.59,348.77c-.39-3.2-.77-6.25-1.21-9.79l10.77,3C250.82,346.45,248.12,348.39,242.59,348.77Z"/><path class="cls-1" d="M201.39,338.93l-1.25,9.46c-4.22,0-6.91-2.1-8.48-6.58Z"/><path class="cls-2" d="M339.24,80.81h-5.88V49.16h5.88l0,0c0,.27.07.53.07.79q0,15.06,0,30.12c0,.26-.05.52-.07.79Z"/><path class="cls-2" d="M363.08,110.54v-5.88l0,0c.26,0,.52-.07.79-.07q15.06,0,30.12,0c.26,0,.52,0,.79.07l0,0v5.88Z"/><path class="cls-2" d="M363.09,25.31V19.5h31.65v5.82l0,0c-.27,0-.53.07-.79.07H363.86c-.27,0-.53-.05-.79-.07Z"/><path class="cls-2" d="M418.6,49.17h5.82V80.81H418.6l0,0a7.29,7.29,0,0,1-.08-.79V49.93a7.29,7.29,0,0,1,.08-.79Z"/><path class="cls-2" d="M351.17,31.38v-6h10.95c.32,0,.65,0,1-.05l0,0v6.05H351.14Z"/><path class="cls-2" d="M394.74,25.32l10.66.05h1.27v6l0,0H394.77V25.3Z"/><path class="cls-2" d="M339.24,49.17c0-3.55,0-7.11.05-10.66,0-.38,0-.75,0-1.26h6l0,0V49.14h-6Z"/><path class="cls-2" d="M412.53,37.25h6v11c0,.32,0,.64.06,1l0,0h-6.06V37.22Z"/><path class="cls-2" d="M418.6,80.81l-.06,10.66v1.26h-6l0,0V80.84h6.06Z"/><path class="cls-2" d="M406.67,98.6v6h-11c-.32,0-.64,0-1,0l0,0V98.63h11.92Z"/><path class="cls-2" d="M345.3,37.25V31.38h5.87l0,0v5.87h-5.87Z"/><path class="cls-2" d="M406.67,31.38h5.86v5.87l0,0h-5.87V31.35Z"/><path class="cls-2" d="M412.53,92.73V98.6h-5.86l0,0V92.76h5.87Z"/><path class="cls-2" d="M345.3,92.73h-6V91.64c0-3.28,0-6.57,0-9.86,0-.32,0-.64-.05-1l0,0h6V92.76Z"/><path class="cls-2" d="M363.09,104.66l-10.65,0h-1.27v-6l0,0h11.93v6.05Z"/><path class="cls-2" d="M351.17,98.6H345.3V92.73l0,0h5.87v5.87Z"/><path class="cls-2" d="M380.82,68.85H375V80.77h5.85c0-3.37,0-6.68,0-10,0-.65-.05-1.29-.08-1.94,1.63,0,3.25.08,4.87.1,1,0,2.05,0,3.17,0,0-1,0-1.82,0-2.67,0-1.05.08-2.1.13-3.16h5.73V43.28h-5.82c0,.19,0,.34,0,.48V62.43a3.89,3.89,0,0,0,.13.68c-1.38,0-2.76-.07-4.15-.09s-2.57,0-4,0ZM367.06,37.28v5.88h21.7V37.28Zm-5.9,6V55H367V43.26ZM375,92.66h5.82V86.82H375Z"/><path class="cls-2" d="M367.06,37.28h21.7v5.88h-21.7Z"/><path class="cls-2" d="M389,63.11a3.89,3.89,0,0,1-.13-.68V43.76c0-.14,0-.29,0-.48h5.82V63.1H389Z"/><path class="cls-2" d="M380.8,68.83c0,.65.08,1.29.08,1.94,0,3.32,0,6.63,0,10H375V68.85h5.78Z"/><path class="cls-2" d="M361.16,43.26H367V55h-5.81Z"/><path class="cls-2" d="M380.82,68.85V63c1.43,0,2.72,0,4,0s2.77.06,4.15.09h0c-.05,1.06-.1,2.11-.13,3.16,0,.85,0,1.71,0,2.67-1.12,0-2.14,0-3.17,0-1.62,0-3.24-.06-4.87-.1Z"/><path class="cls-2" d="M375,92.66V86.82h5.82v5.84Z"/><path class="cls-3" d="M365.89,443.79H361v10.1h4.95c0-2.86,0-5.66,0-8.47,0-.55,0-1.09-.07-1.64l4.13.08c.86,0,1.73,0,2.68,0,0-.82,0-1.55,0-2.27,0-.89.07-1.78.11-2.67h4.86v-16.8h-4.93a3.73,3.73,0,0,0,0,.41v15.82a2.87,2.87,0,0,0,.11.57c-1.17,0-2.34-.06-3.51-.07h-3.39Zm-11.65-26.73v5h18.37v-5Zm-5,5.06v10h4.92v-10ZM361,464h4.93V459H361Z"/><path d="M354.24,417.06h18.37v5H354.24Z"/><path d="M372.79,438.94a3.11,3.11,0,0,1-.11-.58V422.54a3.73,3.73,0,0,1,0-.41h4.93v16.8h-4.86Z"/><path d="M365.87,443.78c0,.55.07,1.09.07,1.64,0,2.81,0,5.61,0,8.47H361v-10.1h4.88Z"/><path d="M349.23,422.12h4.92v10h-4.92Z"/><path d="M365.89,443.79v-4.93h3.39c1.17,0,2.34.05,3.51.08h0c0,.89-.09,1.78-.11,2.67,0,.72,0,1.45,0,2.27-.95,0-1.82,0-2.68,0l-4.13-.08Z"/><path d="M361,464V459h4.93V464Z"/><path class="cls-3" d="M48.75,76.61H41.26V92.05h7.58c0-4.37,0-8.66,0-13,0-.84-.07-1.68-.1-2.51,2.1,0,4.2.09,6.3.12,1.33,0,2.66,0,4.11,0,0-1.26,0-2.36,0-3.46,0-1.37.11-2.73.16-4.1h7.44V43.47H59.2a5.71,5.71,0,0,0-.06.63q0,12.09,0,24.19a4.41,4.41,0,0,0,.17.88c-1.79,0-3.58-.09-5.37-.11s-3.34,0-5.19,0ZM30.93,35.7v7.62H59V35.7Zm-7.66,7.75V58.69H30.8V43.45Zm18,64h7.54V99.89H41.23Z"/><path d="M30.93,35.7H59v7.62H30.93Z"/><path d="M59.31,69.18a4.65,4.65,0,0,1-.17-.89q0-12.09,0-24.19a5.71,5.71,0,0,1,.06-.63h7.54V69.16H59.3Z"/><path d="M48.72,76.58c0,.84.11,1.68.11,2.52,0,4.29,0,8.58,0,13H41.26V76.61h7.49Z"/><path d="M23.27,43.45H30.8V58.69H23.27Z"/><path d="M48.75,76.61V69.05c1.85,0,3.52,0,5.19,0s3.58.07,5.37.11h0c0,1.37-.13,2.73-.16,4.1,0,1.1,0,2.2,0,3.46-1.45,0-2.78,0-4.11,0-2.1,0-4.2-.08-6.31-.13Z"/><path d="M41.23,107.46V99.89h7.54v7.57Z"/><path d="M174,92.43v7.5H155v20H135v38.9l-9.6.3-9.5.3-.2,19.5-.2,19.5-10.2.3L95,199v39l10.3-.3,10.2-.3.2-17c.1-9.4.2-18,.3-19.3,0-2.1.3-2.2,9.5-2.2H135v20h20v-40h18.9l.3,9.7.3,9.8,59.3.3,59.2.2v-20h20v40h20v-20h20v39H313v20H293v20l-19.7-.2-19.8-.3-.3-9.2-.3-9.3h-18.4c-10.2,0-18.8-.1-19.2-.3s-.9,4.2-1.1,9.5l-.3,9.8H174v-20H155v-20h-39.5l.3,20,.4,20H95v38.9l10.3.3,10.2.3v19.5l9,.1c5,.1,9.3.1,9.8,0s.7,8.9.7,19.9v20h20v16h59v-16h39l.6,2.4a35.77,35.77,0,0,1,.2,7.7l-.3,5.4,29.8.3,29.7.2v-16h20v-39.8h8.3c4.5-.1,9-.1,10-.1,1.5-.1,1.7-1.3,1.7-10.1v-10h19v-39H353v-40h19v-39H353v-40H333V120l-9.7-.3-9.8-.3-.3-9.8-.3-9.7H293v-15H174Zm100,76.5v10h-79.5l.2-8.7c.1-4.9.2-9.4.3-10.1,0-.9,8.6-1.2,39.5-1.2H274ZM155,297.43v19.5h-38.9l-.3-16.8c-.2-9.2-.2-17.9,0-19.5l.3-2.7H155Zm198,0v19.5H313v-39h40Z"/><path d="M195,238.43v19.5h19v-39H195Z"/><path d="M253.51,238.43v19.5H274v-39h-20.5Z"/><polygon class="cls-2" points="317.69 139.99 299.7 139.99 299.7 108.97 170.73 108.97 170.73 139.99 152.74 139.99 152.74 158.87 177.16 158.87 177.16 170.22 194.71 170.22 194.71 158.87 274.01 158.87 274.01 170.22 291.56 170.22 291.56 158.87 317.69 158.87 317.69 139.99"/><rect class="cls-2" x="153.2" y="345.89" width="56.02" height="21.45"/><rect class="cls-2" x="257.37" y="345.89" width="56.02" height="21.45"/><polygon class="cls-2" points="260.29 300.43 260.29 317.08 209.22 317.08 209.22 300.43 170.73 300.43 170.73 319.08 209.22 319.08 209.22 336.33 260.29 336.33 260.29 319.08 298.78 319.08 298.78 300.43 260.29 300.43"/><path class="cls-2" d="M64.74,425.68v-5.91H88.82v5.71H101v6.1h6v12.17h6v12.18H107.1v6.14l.07-.07-6.13.13c-.64-5.49-.64-5.49-6.11-6.12a10.86,10.86,0,0,1-.14-2.4c.43-2.87-.81-3.69-3.56-3.51s-5.62-.1-8.43-.17V444h-12v5.89H58.7V456l-5.83.26-.27,5.84H46.45v12.1l.09-.09H40.63V444h5.72V431.75H52.6l-.08-.09v5.94H64.73v-5.94l-.09.09h12v-6.16h-12Z"/><path d="M88.91,492.36v5.89H64.71v-5.89l-.06.06H89Z"/><path d="M107.1,462.07H113v12.08h-5.88l.06.07V462Z"/><path d="M52.59,486.29H46.54V474.13l-.09.09,6.15-.08-.08,12.21Z"/><path d="M107.11,474.15v12.14H101l.07.07L101,474.1l6.15.12Z"/><path d="M64.71,492.36H52.59v-6.07l-.07.06H64.65v6.07Z"/><path d="M101,486.29v6.07H88.91l.07.06v-6.06h12.13Z"/><path class="cls-2" d="M52.6,431.75v-6.07H64.74l-.09-.09v6.16l.09-.09H52.52Z"/><path class="cls-2" d="M64.64,431.75v-6.16h12v6.16Z"/><path class="cls-2" d="M52.52,431.66H64.73v5.94H52.52Z"/><path class="cls-4" d="M70.83,449.93v-9.12h12v9.12l.11-.11H70.72Z"/><path class="cls-4" d="M58.7,456v-6.09H70.83l-.11-.07a10.81,10.81,0,0,0-.19,2.39c.41,2.8-.71,3.74-3.51,3.54s-5.62.08-8.44.14Z"/><path class="cls-4" d="M82.8,449.93c2.81.07,5.64.35,8.43.17s4,.64,3.56,3.51a10.86,10.86,0,0,0,.14,2.4l.11-.07c-1.8-.07-3.61-.19-5.41-.2-6.07,0-6.07,0-6.72-5.88Z"/><path class="cls-4" d="M52.6,474.14l-6.15.08v-12.1H52.6l-.08-.12v12.22Z"/><path class="cls-3" d="M107.17,474.22,101,474.1l.09.12V462l-.07.12,6.13-.13Z"/><path class="cls-4" d="M94.93,456c5.47.63,5.47.63,6.11,6.12l.07-.12c-5.47-.6-5.47-.6-6.07-6.07Z"/><path class="cls-4" d="M52.6,462.12l.27-5.84L58.7,456l-.12-.09c-.08,1.88-.17,3.76-.26,5.81l-5.8.26Z"/><path class="cls-3" d="M101.11,486.36H89v6.06H64.65v-6.07H52.52q0-6.11.08-12.21l-.08.08H64.8v5.9H89.07v-5.9h12l-.09-.12Z"/><path d="M101.11,474.22h-12v5.9H64.8v-5.9H52.52V462l5.8-.26c.09-2.05.18-3.93.26-5.81,2.82-.06,5.64-.34,8.44-.14s3.92-.74,3.51-3.54a10.81,10.81,0,0,1,.19-2.39H82.91c.65,5.87.65,5.86,6.72,5.88,1.8,0,3.61.13,5.41.2.6,5.47.6,5.47,6.07,6.07Z"/><rect class="cls-2" x="107.1" y="449.93" width="5.89" height="24.22"/><rect class="cls-3" x="101.11" y="462.01" width="6.06" height="11.98"/><rect class="cls-3" x="94.37" y="455.91" width="6.75" height="6.1"/><rect class="cls-3" x="82.91" y="448.22" width="12.54" height="7.74"/><rect class="cls-3" x="46.33" y="462.01" width="6.06" height="11.98" transform="translate(98.73 935.99) rotate(-180)"/><rect class="cls-3" x="52.39" y="455.91" width="6.75" height="6.1" transform="translate(111.53 917.91) rotate(-180)"/><rect class="cls-3" x="58.05" y="448.22" width="12.54" height="7.74" transform="translate(128.65 904.18) rotate(-180)"/><rect x="45.24" y="454.96" width="6.21" height="8.1" transform="translate(-410.67 507.35) rotate(-90)"/><rect x="48.51" y="448.73" width="9.57" height="7.29"/><rect x="58.08" y="440.41" width="12.56" height="8.62"/><rect x="70.49" y="433.38" width="12.56" height="7.03"/><rect x="40.63" y="461.17" width="5.91" height="13.58"/><rect x="102.17" y="455.03" width="6.21" height="8.1" transform="translate(-353.81 564.36) rotate(-90)"/><rect x="95.53" y="448.8" width="9.57" height="7.29" transform="translate(200.64 904.89) rotate(-180)"/><rect x="82.97" y="440.48" width="12.56" height="8.62" transform="translate(178.51 889.58) rotate(-180)"/><rect x="70.57" y="433.45" width="12.56" height="7.03" transform="translate(153.7 873.93) rotate(-180)"/><rect x="107.08" y="461.24" width="5.91" height="13.58" transform="translate(220.07 936.07) rotate(-180)"/></svg>