<svg id="Layer_1" data-name="Layer 1" opacity="0.8" xmlns="http://www.w3.org/2000/svg" viewBox="0 0 404.07 484.88"><defs><style>.cls-1{fill:#ff1212;}.cls-2,.cls-3{fill:#fff;}.cls-2{stroke:#bebebe;stroke-miterlimit:10;}</style></defs><ellipse class="cls-1" cx="38.67" cy="447.03" rx="37.74" ry="36.93"/><path class="cls-2" d="M242.59,348.77c-.39-3.2-.77-6.25-1.21-9.79l10.77,3C250.82,346.45,248.12,348.39,242.59,348.77Z" transform="translate(-20.34 -19.5)"/><path class="cls-2" d="M201.39,338.93l-1.25,9.46c-4.22,0-6.91-2.1-8.48-6.58Z" transform="translate(-20.34 -19.5)"/><path class="cls-1" d="M339.24,80.81h-5.88V49.16h5.88l0,0c0,.27.07.53.07.79q0,15.06,0,30.12c0,.26-.05.52-.07.79Z" transform="translate(-20.34 -19.5)"/><path class="cls-1" d="M363.08,110.54v-5.88l0,0c.26,0,.52-.07.79-.07q15.06,0,30.12,0c.26,0,.52,0,.79.07l0,0v5.88Z" transform="translate(-20.34 -19.5)"/><path class="cls-1" d="M363.09,25.31V19.5h31.65v5.82l0,0c-.27,0-.53.07-.79.07H363.86c-.27,0-.53-.05-.79-.07Z" transform="translate(-20.34 -19.5)"/><path class="cls-1" d="M418.6,49.17h5.82V80.81H418.6l0,0a7.29,7.29,0,0,1-.08-.79V49.93a7.29,7.29,0,0,1,.08-.79Z" transform="translate(-20.34 -19.5)"/><path class="cls-1" d="M351.17,31.38v-6h10.95c.32,0,.65,0,1-.05l0,0v6.05H351.14Z" transform="translate(-20.34 -19.5)"/><path class="cls-1" d="M394.74,25.32l10.66.05h1.27v6l0,0H394.77V25.3Z" transform="translate(-20.34 -19.5)"/><path class="cls-1" d="M339.24,49.17c0-3.55,0-7.11.05-10.66,0-.38,0-.75,0-1.26h6l0,0V49.14h-6Z" transform="translate(-20.34 -19.5)"/><path class="cls-1" d="M412.53,37.25h6v11c0,.32,0,.64.06,1l0,0h-6.06V37.22Z" transform="translate(-20.34 -19.5)"/><path class="cls-1" d="M418.6,80.81l-.06,10.66v1.26h-6l0,0V80.84h6.06Z" transform="translate(-20.34 -19.5)"/><path class="cls-1" d="M406.67,98.6v6h-11c-.32,0-.64,0-1,0l0,0V98.63h11.92Z" transform="translate(-20.34 -19.5)"/><path class="cls-1" d="M345.3,37.25V31.38h5.87l0,0v5.87h-5.87Z" transform="translate(-20.34 -19.5)"/><path class="cls-1" d="M406.67,31.38h5.86v5.87l0,0h-5.87V31.35Z" transform="translate(-20.34 -19.5)"/><path class="cls-1" d="M412.53,92.73V98.6h-5.86l0,0V92.76h5.87Z" transform="translate(-20.34 -19.5)"/><path class="cls-1" d="M345.3,92.73h-6V91.64c0-3.28,0-6.57,0-9.86,0-.32,0-.64-.05-1l0,0h6V92.76Z" transform="translate(-20.34 -19.5)"/><path class="cls-1" d="M363.09,104.66l-10.65,0h-1.27v-6l0,0h11.93v6.05Z" transform="translate(-20.34 -19.5)"/><path class="cls-1" d="M351.17,98.6H345.3V92.73l0,0h5.87v5.87Z" transform="translate(-20.34 -19.5)"/><path class="cls-1" d="M380.82,68.85H375V80.77h5.85c0-3.37,0-6.68,0-10,0-.65-.05-1.29-.08-1.94,1.63,0,3.25.08,4.87.1,1,0,2.05,0,3.17,0,0-1,0-1.82,0-2.67,0-1.05.08-2.1.13-3.16h5.73V43.28h-5.82c0,.19,0,.34,0,.48V62.43a3.89,3.89,0,0,0,.13.68c-1.38,0-2.76-.07-4.15-.09s-2.57,0-4,0ZM367.06,37.28v5.88h21.7V37.28Zm-5.9,6V55H367V43.26ZM375,92.66h5.82V86.82H375Z" transform="translate(-20.34 -19.5)"/><path class="cls-1" d="M367.06,37.28h21.7v5.88h-21.7Z" transform="translate(-20.34 -19.5)"/><path class="cls-1" d="M389,63.11a3.89,3.89,0,0,1-.13-.68V43.76c0-.14,0-.29,0-.48h5.82V63.1H389Z" transform="translate(-20.34 -19.5)"/><path class="cls-1" d="M380.8,68.83c0,.65.08,1.29.08,1.94,0,3.32,0,6.63,0,10H375V68.85h5.78Z" transform="translate(-20.34 -19.5)"/><path class="cls-1" d="M361.16,43.26H367V55h-5.81Z" transform="translate(-20.34 -19.5)"/><path class="cls-1" d="M380.82,68.85V63c1.43,0,2.72,0,4,0s2.77.06,4.15.09h0c-.05,1.06-.1,2.11-.13,3.16,0,.85,0,1.71,0,2.67-1.12,0-2.14,0-3.17,0-1.62,0-3.24-.06-4.87-.1Z" transform="translate(-20.34 -19.5)"/><path class="cls-1" d="M375,92.66V86.82h5.82v5.84Z" transform="translate(-20.34 -19.5)"/><path d="M25.33,479.15h-5V452.28h5l0,0a5.08,5.08,0,0,1,.07.67V478.5a4.9,4.9,0,0,1-.07.67Z" transform="translate(-20.34 -19.5)"/><path d="M45.57,504.38v-5h0c.22,0,.44-.06.67-.06H71.8c.22,0,.44,0,.67.06h0v5Z" transform="translate(-20.34 -19.5)"/><path d="M45.58,432v-4.93H72.45V432h0c-.23,0-.45.06-.67.06H46.23c-.23,0-.45,0-.67-.06Z" transform="translate(-20.34 -19.5)"/><path d="M92.7,452.29h4.93v26.86H92.7v0c0-.22-.06-.44-.06-.67V452.94c0-.22,0-.45.06-.67Z" transform="translate(-20.34 -19.5)"/><path d="M35.46,437.19v-5.1h9.3c.27,0,.54,0,.82,0h0v5.14H35.44Z" transform="translate(-20.34 -19.5)"/><path d="M72.45,432l9,0h1.08v5.1l0,0H72.47V432Z" transform="translate(-20.34 -19.5)"/><path d="M25.33,452.29c0-3,0-6,.05-9v-1.08h5.1l0,0v10.12H25.31Z" transform="translate(-20.34 -19.5)"/><path d="M87.55,442.17h5.1v.93c0,2.79,0,5.58,0,8.37,0,.27,0,.55,0,.82v0H87.57V442.15Z" transform="translate(-20.34 -19.5)"/><path d="M92.7,479.15c0,3,0,6,0,9.05,0,.32,0,.64,0,1.07h-5.1l0,0V479.17h5.14Z" transform="translate(-20.34 -19.5)"/><path d="M82.57,494.25v5.1h-9.3c-.27,0-.55,0-.82,0h0v-5.14H82.59Z" transform="translate(-20.34 -19.5)"/><path d="M30.48,442.17v-5h5l0,0v5h-5Z" transform="translate(-20.34 -19.5)"/><path d="M82.57,437.19h5v5l0,0h-5v-5Z" transform="translate(-20.34 -19.5)"/><path d="M87.55,489.27v5h-5l0,0v-5h5Z" transform="translate(-20.34 -19.5)"/><path d="M30.48,489.27h-5.1V480c0-.28,0-.55-.05-.83l0,0h5.14v10.12Z" transform="translate(-20.34 -19.5)"/><path d="M45.58,499.4l-9,0H35.46v-5.1l0,0H45.56v5.14Z" transform="translate(-20.34 -19.5)"/><path d="M35.46,494.25h-5v-5l0,0h5v5Z" transform="translate(-20.34 -19.5)"/><path class="cls-3" d="M60.63,469H55.72v10.12h5c0-2.87,0-5.68,0-8.49,0-.55,0-1.1-.07-1.65l4.14.09h2.68c0-.82,0-1.55,0-2.27,0-.89.07-1.79.1-2.68h4.87V447.29H67.47c0,.17,0,.29,0,.41q0,7.92,0,15.85a3.11,3.11,0,0,0,.11.58L64,464.05h-3.4ZM49,442.2v5H67.36v-5Zm-5,5.07v10h4.94v-10ZM55.7,489.21h4.94v-5H55.7Z" transform="translate(-20.34 -19.5)"/><path d="M49,442.2H67.36v5H49Z" transform="translate(-20.34 -19.5)"/><path d="M67.55,464.13a3.11,3.11,0,0,1-.11-.58q0-7.92,0-15.85c0-.12,0-.24,0-.41h4.94v16.83H67.55Z" transform="translate(-20.34 -19.5)"/><path d="M60.61,469c0,.55.07,1.1.07,1.65,0,2.81,0,5.62,0,8.49h-5V469h4.91Z" transform="translate(-20.34 -19.5)"/><path d="M43.93,447.27h4.94v10H43.93Z" transform="translate(-20.34 -19.5)"/><path d="M60.63,469v-4.95H64l3.52.08h0c0,.89-.08,1.79-.1,2.68,0,.72,0,1.45,0,2.27H64.75L60.61,469Z" transform="translate(-20.34 -19.5)"/><path d="M55.7,489.21v-5h4.94v5Z" transform="translate(-20.34 -19.5)"/><path class="cls-3" d="M365.89,443.79H361v10.1h4.95c0-2.86,0-5.66,0-8.47,0-.55,0-1.09-.07-1.64l4.13.08c.86,0,1.73,0,2.68,0,0-.82,0-1.55,0-2.27,0-.89.07-1.78.11-2.67h4.86v-16.8h-4.93a3.73,3.73,0,0,0,0,.41v15.82a2.87,2.87,0,0,0,.11.57c-1.17,0-2.34-.06-3.51-.07h-3.39Zm-11.65-26.73v5h18.37v-5Zm-5,5.06v10h4.92v-10ZM361,464h4.93V459H361Z" transform="translate(-20.34 -19.5)"/><path d="M354.24,417.06h18.37v5H354.24Z" transform="translate(-20.34 -19.5)"/><path d="M372.79,438.94a3.11,3.11,0,0,1-.11-.58V422.54a3.73,3.73,0,0,1,0-.41h4.93v16.8h-4.86Z" transform="translate(-20.34 -19.5)"/><path d="M365.87,443.78c0,.55.07,1.09.07,1.64,0,2.81,0,5.61,0,8.47H361v-10.1h4.88Z" transform="translate(-20.34 -19.5)"/><path d="M349.23,422.12h4.92v10h-4.92Z" transform="translate(-20.34 -19.5)"/><path d="M365.89,443.79v-4.93h3.39c1.17,0,2.34.05,3.51.08h0c0,.89-.09,1.78-.11,2.67,0,.72,0,1.45,0,2.27-.95,0-1.82,0-2.68,0l-4.13-.08Z" transform="translate(-20.34 -19.5)"/><path d="M361,464V459h4.93V464Z" transform="translate(-20.34 -19.5)"/><path class="cls-3" d="M48.75,76.61H41.26V92.05h7.58c0-4.37,0-8.66,0-13,0-.84-.07-1.68-.1-2.51,2.1,0,4.2.09,6.3.12,1.33,0,2.66,0,4.11,0,0-1.26,0-2.36,0-3.46,0-1.37.11-2.73.16-4.1h7.44V43.47H59.2a5.71,5.71,0,0,0-.06.63q0,12.09,0,24.19a4.41,4.41,0,0,0,.17.88c-1.79,0-3.58-.09-5.37-.11s-3.34,0-5.19,0ZM30.93,35.7v7.62H59V35.7Zm-7.66,7.75V58.69H30.8V43.45Zm18,64h7.54V99.89H41.23Z" transform="translate(-20.34 -19.5)"/><path d="M30.93,35.7H59v7.62H30.93Z" transform="translate(-20.34 -19.5)"/><path d="M59.31,69.18a4.65,4.65,0,0,1-.17-.89q0-12.09,0-24.19a5.71,5.71,0,0,1,.06-.63h7.54V69.16H59.3Z" transform="translate(-20.34 -19.5)"/><path d="M48.72,76.58c0,.84.11,1.68.11,2.52,0,4.29,0,8.58,0,13H41.26V76.61h7.49Z" transform="translate(-20.34 -19.5)"/><path d="M23.27,43.45H30.8V58.69H23.27Z" transform="translate(-20.34 -19.5)"/><path d="M48.75,76.61V69.05c1.85,0,3.52,0,5.19,0s3.58.07,5.37.11h0c0,1.37-.13,2.73-.16,4.1,0,1.1,0,2.2,0,3.46-1.45,0-2.78,0-4.11,0-2.1,0-4.2-.08-6.31-.13Z" transform="translate(-20.34 -19.5)"/><path d="M41.23,107.46V99.89h7.54v7.57Z" transform="translate(-20.34 -19.5)"/><path d="M174,92.43v7.5H155v20H135v38.9l-9.6.3-9.5.3-.2,19.5-.2,19.5-10.2.3L95,199v39l10.3-.3,10.2-.3.2-17c.1-9.4.2-18,.3-19.3,0-2.1.3-2.2,9.5-2.2H135v20h20v-40h18.9l.3,9.7.3,9.8,59.3.3,59.2.2v-20h20v40h20v-20h20v39H313v20H293v20l-19.7-.2-19.8-.3-.3-9.2-.3-9.3h-18.4c-10.2,0-18.8-.1-19.2-.3s-.9,4.2-1.1,9.5l-.3,9.8H174v-20H155v-20h-39.5l.3,20,.4,20H95v38.9l10.3.3,10.2.3v19.5l9,.1c5,.1,9.3.1,9.8,0s.7,8.9.7,19.9v20h20v16h59v-16h39l.6,2.4a35.77,35.77,0,0,1,.2,7.7l-.3,5.4,29.8.3,29.7.2v-16h20v-39.8h8.3c4.5-.1,9-.1,10-.1,1.5-.1,1.7-1.3,1.7-10.1v-10h19v-39H353v-40h19v-39H353v-40H333V120l-9.7-.3-9.8-.3-.3-9.8-.3-9.7H293v-15H174Zm100,76.5v10h-79.5l.2-8.7c.1-4.9.2-9.4.3-10.1,0-.9,8.6-1.2,39.5-1.2H274ZM155,297.43v19.5h-38.9l-.3-16.8c-.2-9.2-.2-17.9,0-19.5l.3-2.7H155Zm198,0v19.5H313v-39h40Z" transform="translate(-20.34 -19.5)"/><path d="M195,238.43v19.5h19v-39H195Z" transform="translate(-20.34 -19.5)"/><path d="M253.51,238.43v19.5H274v-39h-20.5Z" transform="translate(-20.34 -19.5)"/><polygon class="cls-1" points="297.35 120.48 279.36 120.48 279.36 89.47 150.38 89.47 150.38 120.48 132.4 120.48 132.4 139.37 156.82 139.37 156.82 150.73 174.37 150.73 174.37 139.37 253.67 139.37 253.67 150.73 271.21 150.73 271.21 139.37 297.35 139.37 297.35 120.48"/><rect class="cls-1" x="132.85" y="326.39" width="56.02" height="21.45"/><rect class="cls-1" x="237.02" y="326.39" width="56.02" height="21.45"/><polygon class="cls-1" points="239.95 280.93 239.95 297.58 188.88 297.58 188.88 280.93 150.38 280.93 150.38 299.58 188.88 299.58 188.88 316.83 239.95 316.83 239.95 299.58 278.44 299.58 278.44 280.93 239.95 280.93"/></svg>