<svg version="1.0" xmlns="http://www.w3.org/2000/svg"
 width="840.000000pt" height="879.000000pt" viewBox="0 0 840.000000 879.000000"
 preserveAspectRatio="xMidYMid meet">
<metadata>
Created by potrace 1.16, written by Peter Selinger 2001-2019
</metadata>
<g transform="translate(0.000000,879.000000) scale(0.100000,-0.100000)"
fill="#000000" stroke="none" opacity="0.09">
<path d="M3925 8374 c-713 -57 -1357 -277 -1930 -659 -906 -605 -1525 -1540
-1719 -2598 -51 -275 -61 -392 -61 -722 0 -331 12 -466 60 -731 144 -780 527
-1512 1088 -2077 524 -527 1175 -897 1887 -1071 822 -201 1713 -132 2489 193
1429 600 2385 1971 2449 3515 65 1565 -784 3013 -2188 3729 -405 206 -859 343
-1335 403 -115 14 -628 27 -740 18z m745 -368 c270 -38 562 -110 799 -197 177
-66 503 -226 661 -326 991 -624 1623 -1670 1706 -2825 l7 -98 -956 0 -956 0
-6 48 c-13 89 -47 236 -76 327 -40 124 -155 351 -236 465 -86 121 -281 315
-403 403 -114 81 -340 196 -465 236 -751 242 -1550 -35 -1986 -687 -133 -198
-231 -441 -265 -657 -10 -60 -22 -116 -27 -123 -8 -9 -206 -12 -956 -10 l-946
3 3 85 c7 240 73 580 168 873 444 1361 1637 2328 3074 2492 169 19 697 13 860
-9z m-305 -2237 c832 -102 1385 -906 1180 -1717 -134 -529 -569 -933 -1105
-1028 -127 -22 -355 -22 -478 0 -378 68 -704 282 -917 601 -152 228 -228 484
-228 765 0 236 45 427 150 633 264 518 823 816 1398 746z m-1878 -1642 c35
-247 131 -488 281 -712 86 -127 266 -315 401 -416 193 -145 456 -261 704 -311
96 -20 144 -23 327 -23 185 0 231 3 329 23 545 110 997 461 1236 956 82 170
124 311 160 539 l6 37 956 0 956 0 -7 -92 c-48 -663 -277 -1299 -663 -1845
-528 -746 -1333 -1273 -2228 -1458 -411 -85 -874 -97 -1294 -35 -1207 180
-2257 972 -2765 2086 -182 399 -284 798 -322 1262 l-7 82 959 -2 958 -3 13
-88z"/>
</g>
</svg>
