<svg xmlns="http://www.w3.org/2000/svg" viewBox="0 0 504.32 136.8"><defs><style>.cls-1{fill:#fff;}</style></defs><g id="Layer_2" data-name="Layer 2"><g id="Layer_1-2" data-name="Layer 1"><path d="M404.7,41.17c8.12-.71,16-2.12,23.78-1.86,8.06.27,16,2.16,24.07,3.36a3.21,3.21,0,0,1,1.58.58c4.57,4,10.05,2.61,15.35,3a151.75,151.75,0,0,1,24,3.67c8.25,2,11.38,8.66,10.73,17-1,12.54-8.56,20.35-18,26.75-3.95,2.66-4.75,5.48-4.24,9.85a51.56,51.56,0,0,1-.23,12.41c-.86,6.69-7.87,12.17-14.63,11.92-7.58-.28-9.05-1.64-10.31-9.18q-2.48-14.87-5.07-29.72c-.79-4.53-1.54-4.56-5.44-2.33-4.5,2.57-5.89,5.85-4.84,10.88.63,3,.23,6.27.1,9.41-.37,9-5,13.07-16.1,13.77-2,.13-2.42.84-2.53,2.62a56.53,56.53,0,0,1-1,8.73c-.8,3.69-2.55,5-6.31,4.63-5.28-.46-10.53-1.25-15.8-1.81-3.83-.4-5.73-2.6-6.56-6.2-2.11-9.14-4.33-18.24-6.5-27.36a11.66,11.66,0,0,0-.59-2.29,21,21,0,0,0-1.56-2.44c-.89.58-2,1-2.62,1.78-3.84,5.31-7.7,10.6-11.25,16.1-2.69,4.16-6,5.55-10.91,4.58-5.41-1.08-11-1.41-16.42-2.3-4.77-.78-6.52-3.65-5.88-8.5a26.13,26.13,0,0,1,5.28-12.57c15.29-20.42,30.51-40.88,45.41-61.58,3.35-4.66,7-2.6,10.82-2.3,3.38.26,4.14,2.56,4.65,5.27C403.92,38.54,404.37,39.92,404.7,41.17Zm60.36,78.43c3.82-1.86,6.92-3.19,9.82-4.89a3.82,3.82,0,0,0,1.21-3c-.21-3.82-.23-7.75-1.2-11.4-1.89-7.11.3-11.43,6.68-15.3,5.47-3.31,10-8.34,14.51-13,3.1-3.22,2.72-7.16.35-10.92A16.16,16.16,0,0,0,486.12,54c-9.05-2.25-18.11-1.51-27.22-.53-1.49.16-3.2-.81-4.66-1.54-3.16-1.59-6.05-4-9.37-4.94-9.64-2.82-19.44-1.43-29.18-.15-7.19,1-7.2,1-5.93,8.22.43,2.44.84,4.89,1.33,7.32.21,1,.59,2.06,1,3.31l4.06-2.09c2.74,16.34,5.43,32.34,8.21,48.89,3.49-1.66,6.28-3.06,9.14-4.33,1.7-.76,2.22-1.82,2-3.72q-1.15-9.21-1.89-18.48a4.49,4.49,0,0,1,1.2-3.43c5.52-4.25,11.2-8.29,16.9-12.44,2.46-1.29,4.38-.38,5.22.63ZM396.31,36.85C392.08,40,344,105.93,344.15,107.67c4.87.84,9.65,1.55,14.38,2.53,2.73.57,4.4-.3,5.94-2.56,5.26-7.74,10.69-15.37,16.09-23,.57-.8,1.21-1.87,2-2.12,2.53-.79,8.26,2.88,8.89,5.51,2.79,11.74,5.55,23.49,8.39,35.21.3,1.22,1,3.19,1.74,3.31,4.82.73,9.71,1,15.26,1.57C409.9,97.16,403.13,67.12,396.31,36.85Z"/><path class="cls-1" d="M465.06,119.6l-8.19-48.89c-2.36-1.81-2.79-1.18-5.22-.63-5.7,4.15-11.38,8.19-16.9,12.44a4.49,4.49,0,0,0-1.2,3.43q.74,9.26,1.89,18.48c.24,1.9-.28,3-2,3.72-2.86,1.27-5.65,2.67-9.14,4.33-2.78-16.55-5.47-32.55-8.21-48.89l-4.06,2.09c-.37-1.25-.75-2.27-1-3.31-.49-2.43-.9-4.88-1.33-7.32-1.27-7.26-1.26-7.27,5.93-8.22,9.74-1.28,19.54-2.67,29.18.15,3.32,1,6.21,3.35,9.37,4.94,1.46.73,3.17,1.7,4.66,1.54,9.11-1,18.17-1.72,27.22.53a16.16,16.16,0,0,1,10.31,7.06c2.37,3.76,2.75,7.7-.35,10.92-4.52,4.68-9,9.71-14.51,13-6.38,3.87-8.57,8.19-6.68,15.3,1,3.65,1,7.58,1.2,11.4a3.82,3.82,0,0,1-1.21,3C472,116.41,468.88,117.74,465.06,119.6Zm7.51-40c3.31-2.94,6.1-5.3,8.68-7.87.34-.34-.33-2.51-.6-2.52a70.83,70.83,0,0,0-8.24.16c-.29,0-.76,1.07-.72,1.61C471.87,73.56,472.19,76.1,472.57,79.63Zm-40.74-7.06c3.34-3,6.12-5.33,8.69-7.9.33-.33-.36-2.48-.63-2.5a72.71,72.71,0,0,0-8.22.17c-.3,0-.77,1.07-.73,1.61C431.12,66.49,431.45,69,431.83,72.57Z"/><path class="cls-1" d="M396.31,36.85c6.82,30.27,13.59,60.31,20.57,91.25-5.55-.52-10.44-.84-15.26-1.57-.74-.12-1.44-2.09-1.74-3.31C397,111.5,394.28,99.75,391.49,88c-.63-2.63-6.36-6.3-8.89-5.51-.83.25-1.47,1.32-2,2.12-5.4,7.65-10.83,15.28-16.09,23-1.54,2.26-3.21,3.13-5.94,2.56-4.73-1-9.51-1.69-14.38-2.53C344,105.93,392.08,40,396.31,36.85ZM385,72.89l6.85,2c-.33-4.24-.59-7.65-.92-11.93Z"/><path d="M306,108.4l-19.75-2q.35-5.12.69-10.06l-8.59,2.56c.37,1.81.71,3.75,1.16,5.66.21.91-.07,1.34-.82,1.91a11.82,11.82,0,0,1-9.94,2.21c-7.71-1.36-15.51-2.22-23.28-3.23-1-.13-1.3-.5-1.42-1.45-.26-2.08-.67-4.14-1-6.38l-4.56,2.73c-1.13-1.89-2.25-3.75-3.43-5.7-1.4.83-2.71,1.63-4.05,2.37a2.81,2.81,0,0,1-1.46.41c-8.36-1-16.71-2-25.06-3,0,0-.07,0-.32-.25.4-3.4.81-7,1.26-10.74a37.11,37.11,0,0,1-13.26,5.64l.06,1.45c.23,5.68.43,11.35.72,17a1.79,1.79,0,0,1-1.1,2c-1.28.67-2.53,1.43-3.75,2.22a1.81,1.81,0,0,1-1.94.12q-19.89-8.89-39.8-17.73c-.62-.28-1.26-.54-2.11-.9.12,3,.23,5.71.35,8.46.07,1.67.11,3.35.25,5a1.18,1.18,0,0,1-.83,1.42.67.67,0,0,0-.12.06c-4.17,3.3-9.31,3.7-14.25,4.67-4.23.83-8.48,1.61-12.72,2.41-.21,0-.43,0-.82.08l-1.19-8.75c-1.06.86-2,1.62-2.88,2.34-6.35,4.93-13.42,7.31-21.49,5.88a22,22,0,0,1-14.33-9.37q-.37-.54-.78-1.05s-.08,0-.25-.08c1.88,6.15,3.72,12.23,5.58,18.35-3.12,2.27-6.08,4.57-9.84,5.81-6.68,2.2-13.23,4.8-20,7.27Q37,107.29,23,78.85l-5.88,2.79L0,55.31a76.66,76.66,0,0,1,6.59-6.18A93,93,0,0,1,35.38,34.44c9.9-3,20-4.12,30.14-1.88a30.2,30.2,0,0,1,19,12.63,23.92,23.92,0,0,1,3.92,17.22c0,.34-.08.68-.16,1.35,6.08-4.44,12.63-6.66,20.11-6.07l-.47-3.75-5.52,1.55c-.16-1.46-.31-2.8-.44-4.14-.37-4-.71-8.06-1.11-12.09a1.57,1.57,0,0,1,.87-1.68c3.73-2.51,7.89-4,12.08-5.52,7.92-2.82,15.8-5.74,23.7-8.62l1.3-.43.15,3.8c1-.79,2.05-1.7,3.18-2.47s2.41-1.46,3.68-2.21L158,32.07c2.6,2.12,5.2,4.22,7.77,6.37a1.15,1.15,0,0,0,1.61.16c1.17-.77,2.39-1.45,3.7-2.23l-4.44-4.84c.34-.45.63-.87,1-1.27,7.23-9,14.42-18,21.74-26.95A9,9,0,0,1,195.57,0a1.58,1.58,0,0,1,1.19.53c4.42,6,8.81,12,13.31,18.14L191.76,29.49a31.73,31.73,0,0,1,19.37,7.26c.29-2.26.49-4.32.85-6.36a5.41,5.41,0,0,1,1-1.65c0-.07.15-.09.22-.14a13.93,13.93,0,0,1,10-3c1.53.1,3.09-.23,4.62-.14a17.6,17.6,0,0,0,12.54-3.62,2.45,2.45,0,0,1,1.33-.48q10.25-.45,20.48-.84a2.93,2.93,0,0,1,.53.07c2,10.07,4.06,20.18,6.14,30.5a28.62,28.62,0,0,1,16.52-6c-.11-2.74-.2-5.37-.33-8-.11-2.42-.21-4.84-.41-7.25a1.49,1.49,0,0,1,1-1.76l.11-.06c3-2.61,6.33-2.71,10.16-1.9,8.48,1.79,17.05,3.16,25.6,4.6,1.35.22,2,.73,2.13,2.06a11.25,11.25,0,0,0,.45,1.71c1.18-.7,2.28-1.4,3.44-2a2.69,2.69,0,0,1,1.6-.32q13.23,2.58,26.42,5.26a3.85,3.85,0,0,1,.61.24c-.74,2.58-1.45,5.15-2.19,7.71q-10.32,35.92-20.64,71.86a3.86,3.86,0,0,1-1.54,2c-3.13,2.53-6.34,2.72-10.12,1.35-4.46-1.6-9.13-2.62-13.74-3.79a1.8,1.8,0,0,1-1.61-2.06C306.24,112.64,306.09,110.58,306,108.4ZM72.87,118.78c-.51-1.67-1-3.17-1.44-4.67q-3.8-12.48-7.55-25a1.77,1.77,0,0,1,.32-1.55c1.94-1.7,4.09-3.18,6-4.93a38.68,38.68,0,0,0,11-16.89c2.43-7.82,1.09-14.87-5-20.57a26.47,26.47,0,0,0-15.68-7,55.83,55.83,0,0,0-17.69.9,82.29,82.29,0,0,0-24.63,9.94c-1.53.9-3,1.91-4.62,3L24,68.09l6.52-3.54,29.39,59Zm259.47-80q-3,15-6,30c-1.89-6.5-3.51-13-5.14-19.4l-3.09-12.13c-.21-.83-.45-1.38-1.57-1.53-4.19-.56-8.35-1.34-12.53-2-2.44-.4-4.89-.74-7.57-1.14l-.06,5.75,4.66,1.1c-.06,1.13-.12,2.13-.17,3.13-.11,2.19-.1,4.38-.37,6.55a2,2,0,0,0,.77,2c5.41,5,7.34,11.41,6.71,18.52s-3.92,13.22-9,18.31a2.28,2.28,0,0,0-.68,1.32c-.18,2.74-.27,5.48-.4,8.43l12.32,1.41,4.2-31h.24q1.32,20.11,2.63,40.22l11.37,2.85c6.64-23.21,13.24-46.3,19.87-69.49ZM144.09,66.29l19-21.8-14.79-13-13.75,21c-.71-7-1.38-13.55-2.06-20.3L113,38.94c.16,1.78.32,3.44.48,5.23l5.5-1.54c.33,2.91.62,5.61,1,8.3.48,3.87,1,7.74,1.51,11.6a2.92,2.92,0,0,0,.79,1.55,22.46,22.46,0,0,1,6.7,14.68,28.06,28.06,0,0,1-3.07,14.95,2.36,2.36,0,0,0-.39,1.09c.21,2.09.49,4.18.76,6.26.15,1.2.35,2.39.54,3.72,3.5-.66,6.84-1.28,10.17-1.93,2-.39,2-.42,1.9-2.41q-.45-10.75-.88-21.51c0-.37,0-.74,0-1.25l48.42,21.75-.54-13.27c-.58-.1-1.09-.22-1.6-.28-8.73-.95-15.72-4.83-20.69-12.17a3.08,3.08,0,0,0-1.38-1.09c-2.58-1-5.19-1.83-7.78-2.74Zm90.59-1.07.28-.06,9.8,19c1.84-5.34,3.59-10.43,5.46-15.9,1.89,9.74,3.71,19.1,5.51,28.36l16.06,1.76c.21-2.67-.28-3.42-2.52-4.61a21.57,21.57,0,0,1-12-18.21c-.57-6.89,1.72-13,5.76-18.51a2.69,2.69,0,0,0,.48-2.31c-.65-3.48-1.33-6.94-2-10.41-1.09-5.56-2.22-11.12-3.28-16.69-.14-.74-.45-.95-1.14-.92-3.09.14-6.17.23-9.25.41a1.25,1.25,0,0,0-.92.79c-.47,3.09-.86,6.2-1.28,9.3q-.93,6.88-1.88,13.77l-.2,0q-2.3-10.1-4.59-20.22c-5,.21-9.76.39-14.56.63a1.26,1.26,0,0,0-.88.83c-.4,2.58-.72,5.17-1,7.76q-1.31,10.23-2.6,20.45a2.32,2.32,0,0,0,1.11,2.53,40.8,40.8,0,0,1,3.68,3,58.41,58.41,0,0,1-4.07,4.64,7.84,7.84,0,0,0-2.7,5.68c0,.48-.09,1-.14,1.44-.32,2.67-.65,5.33-1,8.11l15.3,2C232.91,80.24,233.8,72.73,234.68,65.22Zm-29.44-6.81a84,84,0,0,1-6.66,5.19,15.25,15.25,0,0,1-8.21,2c3.35-3.86,6.47-7.43,9.57-11s6.24-7.27,9.4-11a19.8,19.8,0,0,0-6.21-4.89c-8.74-4.39-17.34-3.42-25.65,1.08C168,45,163.4,54.75,166.58,65.66c2.59,8.88,10.77,13.94,20.38,14.23a32.39,32.39,0,0,0,11.11-1.76c6.77-2.21,12.77-5.63,17.47-11.19ZM100.17,104.85c.79,0,1.59,0,2.38-.12a14.54,14.54,0,0,0,2-.47,25.15,25.15,0,0,0,15-11.12c3.4-5.28,5-11.06,3.54-17.28-2.42-10.38-11.74-14.85-21.1-13-7.32,1.44-12.83,5.7-16.71,12-3.15,5.08-4.57,10.61-3.2,16.55A17,17,0,0,0,100.17,104.85ZM262.66,74.76c.13.85.25,1.94.47,3,2.07,9.76,11.74,14.72,21.19,12.32a23.8,23.8,0,0,0,13.32-8.75c4.25-5.51,6.32-11.64,4.59-18.64-2.25-9.07-10.84-13.21-19.07-12a22.86,22.86,0,0,0-12.33,5.94C265.58,61.44,262.59,67.27,262.66,74.76ZM195.12,8.18c-1.09,1.37-2.06,2.56-3,3.78-3.21,4.17-6.38,8.37-9.6,12.53-1.4,1.81-1.45,1.8-.06,3.6a2.22,2.22,0,0,0,.35.24l19.76-10.86ZM154.27,63.92l5.86,2c-.26-2.79-.5-5.39-.75-8Z"/><path d="M341.93,115c-.5-1.1-.82-1.84-1.15-2.57l-.26.06.09,2.08h-.26l-.14-3.33.41-.16,1.3,2.7,1-2.73.35.06.14,3.34-.2,0-.18-1.88-.18-.08Z"/><path d="M337,111.33l2.44-.1c-1.91.68-.41,2.33-1,3.44-.94-.87.62-2.87-1.4-3.34"/><path class="cls-1" d="M72.87,118.78l-13,4.75-29.39-59L24,68.09,13.56,52c1.62-1,3.09-2,4.62-3a82.29,82.29,0,0,1,24.63-9.94,55.83,55.83,0,0,1,17.69-.9,26.47,26.47,0,0,1,15.68,7c6.13,5.7,7.47,12.75,5,20.57a38.68,38.68,0,0,1-11,16.89c-1.88,1.75-4,3.23-6,4.93a1.77,1.77,0,0,0-.32,1.55q3.74,12.5,7.55,25C71.89,115.61,72.36,117.11,72.87,118.78ZM60.72,81.13c1.37-1,2.55-1.88,3.65-2.81,3.73-3.12,6.79-6.66,6.76-11.9,0-3.91-1.06-7.4-5.63-9.37-4.18-1.79-8.2-1-12.09,1-.77.4-.46.89-.27,1.43,1.6,4.58,3.18,9.16,4.79,13.74C58.82,75.78,59.73,78.32,60.72,81.13Z"/><path class="cls-1" d="M332.34,38.81l16.21,2.89c-6.63,23.19-13.23,46.28-19.87,69.49l-11.37-2.85Q316,88.23,314.68,68.12h-.24l-4.2,31-12.32-1.41c.13-3,.22-5.69.4-8.43a2.28,2.28,0,0,1,.68-1.32c5.07-5.09,8.36-11.14,9-18.31s-1.3-13.51-6.71-18.52a2,2,0,0,1-.77-2c.27-2.17.26-4.36.37-6.55.05-1,.11-2,.17-3.13l-4.66-1.1.06-5.75c2.68.4,5.13.74,7.57,1.14,4.18.67,8.34,1.45,12.53,2,1.12.15,1.36.7,1.57,1.53l3.09,12.13c1.63,6.45,3.25,12.9,5.14,19.4Q329.35,53.8,332.34,38.81Z"/><path class="cls-1" d="M144.09,66.29l10.3,3.59c2.59.91,5.2,1.78,7.78,2.74a3.08,3.08,0,0,1,1.38,1.09c5,7.34,12,11.22,20.69,12.17.51.06,1,.18,1.6.28l.54,13.27L138,77.68c0,.51,0,.88,0,1.25q.44,10.75.88,21.51c.08,2,.09,2-1.9,2.41-3.33.65-6.67,1.27-10.17,1.93-.19-1.33-.39-2.52-.54-3.72-.27-2.08-.55-4.17-.76-6.26a2.36,2.36,0,0,1,.39-1.09,28.06,28.06,0,0,0,3.07-14.95,22.46,22.46,0,0,0-6.7-14.68,2.92,2.92,0,0,1-.79-1.55c-.54-3.86-1-7.73-1.51-11.6-.34-2.69-.63-5.39-1-8.3l-5.5,1.54c-.16-1.79-.32-3.45-.48-5.23l19.56-6.69c.68,6.75,1.35,13.33,2.06,20.3l13.75-21,14.79,13Z"/><path class="cls-1" d="M234.68,65.22c-.88,7.51-1.77,15-2.66,22.58l-15.3-2c.34-2.78.67-5.44,1-8.11,0-.48.13-1,.14-1.44a7.84,7.84,0,0,1,2.7-5.68,58.41,58.41,0,0,0,4.07-4.64,40.8,40.8,0,0,0-3.68-3,2.32,2.32,0,0,1-1.11-2.53q1.3-10.21,2.6-20.45c.33-2.59.65-5.18,1-7.76a1.26,1.26,0,0,1,.88-.83c4.8-.24,9.6-.42,14.56-.63q2.29,10.14,4.59,20.22l.2,0q.94-6.88,1.88-13.77c.42-3.1.81-6.21,1.28-9.3a1.25,1.25,0,0,1,.92-.79c3.08-.18,6.16-.27,9.25-.41.69,0,1,.18,1.14.92,1.06,5.57,2.19,11.13,3.28,16.69.69,3.47,1.37,6.93,2,10.41A2.69,2.69,0,0,1,263,57c-4,5.49-6.33,11.62-5.76,18.51a21.57,21.57,0,0,0,12,18.21c2.24,1.19,2.73,1.94,2.52,4.61l-16.06-1.76c-1.8-9.26-3.62-18.62-5.51-28.36-1.87,5.47-3.62,10.56-5.46,15.9l-9.8-19Z"/><path class="cls-1" d="M205.24,58.41l10.3,8.53c-4.7,5.56-10.7,9-17.47,11.19A32.39,32.39,0,0,1,187,79.89c-9.61-.29-17.79-5.35-20.38-14.23C163.4,54.75,168,45,177.48,39.85c8.31-4.5,16.91-5.47,25.65-1.08a19.8,19.8,0,0,1,6.21,4.89c-3.16,3.68-6.27,7.32-9.4,11s-6.22,7.15-9.57,11a15.25,15.25,0,0,0,8.21-2A84,84,0,0,0,205.24,58.41Zm-9-9.8c-3.68-3.38-7.74-4.32-12.16-2.64a10.71,10.71,0,0,0-7.3,9.87A10.82,10.82,0,0,0,182,66.06Z"/><path class="cls-1" d="M100.17,104.85a17,17,0,0,1-18-13.45c-1.37-5.94,0-11.47,3.2-16.55,3.88-6.29,9.39-10.55,16.71-12,9.36-1.85,18.68,2.62,21.1,13,1.46,6.22-.14,12-3.54,17.28a25.15,25.15,0,0,1-15,11.12,14.54,14.54,0,0,1-2,.47C101.76,104.83,101,104.81,100.17,104.85Zm4.92-37.57a28.7,28.7,0,0,0-4,.58,9.5,9.5,0,0,0-5.9,13.75c2.66,4.63,7.32,5.91,11.92,4.86s7.32-4.22,7.91-9a8.35,8.35,0,0,0-1.66-5.8c-.21,4.06-2.19,6.55-5.23,6.94-4.07.52-6.71-1.67-7.36-4.1S100.75,69.42,105.09,67.28Z"/><path class="cls-1" d="M262.66,74.76c-.07-7.49,2.92-13.32,8.17-18.13a22.86,22.86,0,0,1,12.33-5.94c8.23-1.21,16.82,2.93,19.07,12,1.73,7-.34,13.13-4.59,18.64a23.8,23.8,0,0,1-13.32,8.75c-9.45,2.4-19.12-2.56-21.19-12.32C262.91,76.7,262.79,75.61,262.66,74.76Zm22.23-20c-.92,0-1.85,0-2.76.13a10.18,10.18,0,0,0-7.11,4c-3.31,4.55-2.23,10.31,2.53,13.56,5.71,3.89,14.17,1.44,16.19-5.26a8.85,8.85,0,0,0-1.09-7.76c0,3.92-2.09,6.41-5.51,6.85-3.16.41-6.53-1.65-7.13-4.5C279.49,59.36,280.38,56.41,284.89,54.76Z"/><path class="cls-1" d="M195.12,8.18l7.46,9.29L182.82,28.33a2.22,2.22,0,0,1-.35-.24c-1.39-1.8-1.34-1.79.06-3.6,3.22-4.16,6.39-8.36,9.6-12.53C193.06,10.74,194,9.55,195.12,8.18Z"/><path class="cls-1" d="M154.27,63.92l5.11-6c.25,2.58.49,5.18.75,8Z"/><path d="M60.72,81.13c-1-2.81-1.9-5.35-2.79-7.89-1.61-4.58-3.19-9.16-4.79-13.74-.19-.54-.5-1,.27-1.43,3.89-2,7.91-2.81,12.09-1,4.57,2,5.6,5.46,5.63,9.37,0,5.24-3,8.78-6.76,11.9C63.27,79.25,62.09,80.08,60.72,81.13Zm2.17-8.08A8.56,8.56,0,0,0,66,64.3c-.72-2.53-3.57-3.77-7.08-2.91C60.22,65.25,61.53,69.09,62.89,73.05Z"/><path d="M431.3,71.18c-.35-1.84-.67-3.5-1-5.17-.56-3-1.1-6-1.65-9-.07-.35-.21-.69.3-.87,2.62-.88,5.19-1,7.62.54,2.65,1.66,3,3.93,2.59,6.37-.48,3.25-2.72,5.16-5.34,6.74C433.06,70.26,432.25,70.66,431.3,71.18Zm2.12-4.81a5.39,5.39,0,0,0,2.77-5.14c-.21-1.64-1.86-2.69-4.13-2.49Z"/><path d="M469,76.74c-.35-1.84-.67-3.51-1-5.18l-1.65-9c-.06-.35-.21-.69.31-.86a8.48,8.48,0,0,1,7.61.53c2.65,1.66,3,3.93,2.59,6.37-.48,3.26-2.72,5.16-5.34,6.74C470.8,75.81,470,76.22,469,76.74Zm2.13-4.82a5.37,5.37,0,0,0,2.76-5.14c-.21-1.64-1.86-2.69-4.12-2.49Z"/><path d="M196.24,48.61,182,66.06a10.82,10.82,0,0,1-5.26-10.22,10.71,10.71,0,0,1,7.3-9.87C188.5,44.29,192.56,45.23,196.24,48.61Zm-14.35,11.6c2.84-3.54,5.57-7,8.34-10.39-3.13-1.08-5.83.11-8,2.42C180.47,54.1,180.37,57.51,181.89,60.21Z"/><path d="M105.09,67.28c-4.34,2.14-4.93,4.77-4.27,7.26s3.29,4.62,7.36,4.1c3-.39,5-2.88,5.23-6.94a8.35,8.35,0,0,1,1.66,5.8c-.59,4.75-3.26,7.91-7.91,9s-9.26-.23-11.92-4.86a9.5,9.5,0,0,1,5.9-13.75A28.7,28.7,0,0,1,105.09,67.28Z"/><path d="M284.89,54.76c-4.51,1.65-5.4,4.6-4.88,7,.6,2.85,4,4.91,7.13,4.5,3.42-.44,5.5-2.93,5.51-6.85a8.85,8.85,0,0,1,1.09,7.76c-2,6.7-10.48,9.15-16.19,5.26-4.76-3.25-5.84-9-2.53-13.56a10.18,10.18,0,0,1,7.11-4C283,54.76,284,54.8,284.89,54.76Z"/><path class="cls-1" d="M62.89,73.05c-1.36-4-2.67-7.8-4-11.66,3.51-.86,6.36.38,7.08,2.91A8.56,8.56,0,0,1,62.89,73.05Z"/><path class="cls-1" d="M181.89,60.21c-1.52-2.7-1.42-6.11.34-8,2.17-2.31,4.87-3.5,8-2.42C187.46,53.26,184.73,56.67,181.89,60.21Z"/><path d="M391.32,61.57l-7.38,12.37,8.52,2.46C392.05,71.12,391.73,66.89,391.32,61.57Zm-4.44,11L390,67.33c.18,2.27.32,4.07.49,6.32Z"/></g></g></svg>