<?xml version="1.0" standalone="no"?>
<!DOCTYPE svg PUBLIC "-//W3C//DTD SVG 20010904//EN"
 "http://www.w3.org/TR/2001/REC-SVG-20010904/DTD/svg10.dtd">
<svg version="1.0" xmlns="http://www.w3.org/2000/svg"
 width="512.000000pt" height="512.000000pt" viewBox="0 0 512.000000 512.000000"
 preserveAspectRatio="xMidYMid meet">
<metadata>
Created by potrace 1.16, written by Peter Selinger 2001-2019
</metadata>
<g transform="translate(0.000000,512.000000) scale(0.100000,-0.100000)"
fill="#000000" stroke="none">
<path d="M0 2560 l0 -2560 2560 0 2560 0 0 2560 0 2560 -2560 0 -2560 0 0
-2560z m2600 -309 c77 -29 125 -73 162 -149 58 -118 41 -243 -47 -340 -83 -93
-226 -123 -343 -72 -69 30 -142 110 -165 180 -79 244 155 471 393 381z m-1598
-223 c297 -143 659 -246 1038 -294 51 -6 58 -10 95 -58 86 -109 218 -170 365
-169 147 1 274 64 362 181 l37 48 118 17 c317 46 670 154 947 288 55 27 102
46 104 44 9 -9 -61 -205 -108 -304 -101 -210 -206 -356 -367 -511 -441 -426
-1063 -567 -1642 -374 -488 162 -884 563 -1046 1059 -35 105 -42 140 -27 133
4 -2 60 -29 124 -60z"/>
</g>
</svg>
