<svg id="Layer_3" data-name="Layer 3" xmlns="http://www.w3.org/2000/svg" viewBox="0 0 353.67 303.71"><path d="M334.29,57.73V39H315.44V20.16H296.69V1.4H177.1V19.88H158.27v19h-18.9V57.68H120.55V192c18.07,10,28.45,28.19,43.35,41.88H296.46V214.94h18.77V196.07h18.95V177.3h18.7V57.73ZM315.16,158.25H296.59v18.92H277.68v18.67H196.12V177.32h-19V158.4h-18.7V76.65H177V57.75h18.93V39.16h81.65V57.59h18.91v19h18.72Z"/><path d="M97.51,212.68A4.21,4.21,0,0,1,95,209.12H86V228H67v19.06H48.1v37.84H66.74v18.63h37.84V284.8h19V265.86h18.82V255.35C126.83,241.56,116.61,222.25,97.51,212.68Z"/><path d="M136.19,174a4.22,4.22,0,0,1-2.53-3.56h-9v18.88h-19v19.06H86.78v37.84h18.64v18.64h37.84V246.12h19V227.18H181V216.67C165.51,202.88,155.29,183.57,136.19,174Z"/></svg>